<?xml version="1.0" standalone="no"?>
<!DOCTYPE svg PUBLIC "-//W3C//DTD SVG 20010904//EN"
 "http://www.w3.org/TR/2001/REC-SVG-20010904/DTD/svg10.dtd">
<svg version="1.0" xmlns="http://www.w3.org/2000/svg"
 width="675.000000pt" height="675.000000pt" viewBox="0 0 675.000000 675.000000"
 preserveAspectRatio="xMidYMid meet">
<metadata>
Created by potrace 1.10, written by Peter Selinger 2001-2011
</metadata>
<g transform="translate(0.000000,675.000000) scale(0.100000,-0.100000)"
fill="#000000" stroke="none">
<path d="M6588 6744 c-17 -16 118 -154 151 -154 7 0 11 29 11 80 0 79 0 80
-25 80 -20 0 -25 -5 -25 -26 0 -14 -4 -23 -10 -19 -5 3 -10 15 -10 26 0 16 -7
19 -43 19 -24 0 -46 -3 -49 -6z"/>
<path d="M3615 6690 c-101 -19 -173 -36 -210 -51 -241 -98 -274 -117 -399
-229 -110 -99 -167 -193 -237 -390 -70 -199 -89 -307 -92 -529 -1 -102 -6
-156 -13 -158 -6 -2 -31 -14 -55 -26 -53 -27 -62 -52 -22 -61 16 -4 41 -23 57
-42 30 -38 46 -34 46 12 0 12 9 41 20 65 11 24 20 57 20 72 0 15 14 56 32 90
17 34 39 87 48 117 12 41 21 54 33 52 13 -2 17 5 17 35 0 30 7 44 38 73 20 20
48 50 62 68 17 21 33 32 51 32 14 0 33 8 41 18 32 37 65 109 71 150 3 24 12
51 21 61 9 10 16 27 16 38 0 36 20 78 48 98 25 19 41 20 278 18 l251 -3 69
-31 c55 -24 83 -31 139 -32 39 0 80 3 92 7 19 6 22 3 25 -26 3 -30 8 -35 58
-55 36 -14 60 -18 71 -13 12 7 24 1 44 -20 16 -17 34 -30 40 -30 7 0 20 -8 29
-19 9 -10 30 -21 46 -25 20 -3 37 -18 53 -43 13 -21 32 -44 41 -52 20 -17 21
-37 1 -45 -10 -3 -15 -19 -15 -43 0 -23 -16 -71 -39 -122 -32 -67 -38 -89 -30
-108 5 -13 9 -38 9 -54 0 -35 56 -179 76 -195 8 -6 14 -20 14 -32 0 -11 7 -22
15 -26 8 -3 20 -17 25 -31 5 -14 15 -25 22 -25 7 0 26 -24 41 -54 l28 -54 -15
-118 c-17 -135 -32 -212 -45 -228 -5 -6 -13 -33 -19 -61 -10 -48 -10 -51 16
-72 15 -12 30 -22 33 -23 9 0 18 38 29 123 9 71 43 167 59 167 5 0 11 8 15 18
3 9 11 24 17 33 10 14 8 22 -14 49 -31 36 -32 47 -13 87 23 46 50 132 85 273
76 296 69 450 -30 690 -70 172 -135 274 -248 393 -154 161 -304 259 -446 291
-92 21 -271 19 -400 -4z"/>
<path d="M2514 5524 c-7 -29 27 -74 58 -74 20 0 22 3 9 28 -5 9 -14 29 -20 45
-13 34 -39 35 -47 1z"/>
<path d="M3031 5512 c-15 -29 -14 -54 5 -80 12 -18 25 -22 70 -22 57 0 132
-32 162 -69 7 -9 26 -17 42 -17 56 -3 61 -4 54 -15 -3 -6 -17 -8 -33 -4 -50
14 -186 21 -288 16 -50 -2 -42 -29 23 -85 78 -68 154 -80 154 -25 0 29 34 21
38 -9 2 -15 16 -27 39 -37 51 -22 75 -18 103 15 13 17 31 30 40 30 22 -1 60
-35 60 -56 0 -18 27 -43 47 -44 7 0 15 17 19 37 l7 37 18 -23 c52 -64 158 53
147 162 -3 30 -5 32 -44 32 -23 1 -48 6 -56 13 -21 17 -158 62 -190 62 -14 0
-39 11 -55 23 -38 32 -86 47 -150 47 -30 0 -63 4 -73 10 -10 5 -43 12 -73 16
-49 6 -56 4 -66 -14z"/>
<path d="M3949 5249 c-73 -84 -78 -99 -79 -235 0 -111 -2 -122 -22 -144 -21
-22 -23 -35 -23 -130 0 -104 0 -105 -25 -108 -14 -2 -34 -12 -45 -22 -30 -27
-81 -50 -110 -50 -17 0 -42 17 -80 55 -61 62 -97 71 -142 35 -20 -16 -29 -18
-40 -8 -20 16 -35 -3 -31 -38 2 -19 14 -36 37 -51 42 -28 51 -29 58 -3 6 22
34 34 62 25 10 -3 27 -24 37 -48 21 -48 30 -57 61 -57 27 0 53 -25 53 -50 0
-13 -10 -22 -32 -28 -23 -6 -34 -15 -36 -31 -6 -42 -27 -15 -28 38 -2 63 -10
73 -33 42 -17 -22 -23 -24 -79 -18 -36 4 -64 3 -67 -3 -3 -6 -16 -10 -29 -10
-28 0 -46 -18 -46 -47 0 -21 10 -28 34 -24 6 1 27 3 48 3 20 0 43 7 49 14 17
21 27 17 63 -21 36 -37 66 -44 86 -20 21 25 34 18 88 -50 74 -93 70 -105 -21
-57 -47 25 -58 27 -122 22 -39 -4 -78 -4 -87 -2 -24 6 -23 22 2 22 11 0 20 5
20 11 0 8 -19 8 -62 2 -86 -11 -195 -10 -208 3 -13 13 30 46 70 54 18 4 26 13
28 33 4 36 -20 45 -56 21 -15 -10 -41 -19 -58 -19 -17 -1 -47 -11 -65 -23 -19
-12 -49 -29 -66 -39 -62 -32 -34 -85 46 -85 20 0 45 -5 56 -11 11 -6 61 -11
110 -12 50 0 99 -6 110 -12 39 -23 118 -53 138 -53 24 0 105 -28 125 -43 19
-15 14 -33 -14 -46 -18 -8 -25 -18 -23 -34 2 -12 -3 -32 -9 -45 -12 -21 -15
-21 -35 -7 -12 8 -37 15 -55 15 -38 0 -142 27 -156 41 -6 5 -24 9 -42 9 -24 0
-38 -8 -58 -34 -48 -64 -27 -116 68 -165 l66 -33 -20 -28 c-14 -19 -26 -27
-39 -23 -14 3 -23 -3 -33 -22 -13 -23 -16 -25 -27 -11 -10 11 -18 13 -31 6
-10 -6 -26 -7 -35 -4 -10 4 -21 1 -26 -7 -8 -12 -12 -11 -24 5 -8 11 -15 26
-15 34 0 10 -7 13 -25 8 -14 -3 -36 -9 -50 -12 -22 -5 -27 -2 -36 25 -8 23
-16 30 -28 26 -13 -4 -22 5 -35 32 -18 37 -18 37 7 55 20 15 23 24 21 67 -2
27 -12 75 -23 106 -20 57 -20 57 -1 62 34 9 24 33 -14 33 -18 0 -45 9 -59 20
-14 11 -35 19 -47 18 -17 -2 -25 6 -40 42 -18 45 -33 59 -45 41 -12 -21 -25
-11 -25 18 0 36 16 49 25 21 8 -26 25 -16 25 15 0 29 -7 34 -64 41 -43 6 -46
5 -57 -22 l-11 -29 -12 30 c-16 38 -22 26 -31 -60 -12 -119 4 -109 -207 -124
-218 -14 -225 -15 -308 -35 -99 -23 -172 -49 -226 -81 -55 -32 -211 -186 -264
-261 -61 -85 -192 -246 -265 -322 -80 -85 -157 -145 -221 -173 -34 -16 -44
-25 -44 -44 0 -31 3 -32 91 -45 108 -15 230 -43 226 -53 -2 -8 -164 -66 -327
-118 -77 -25 -112 -41 -330 -148 -151 -74 -172 -88 -248 -161 -45 -44 -86 -80
-90 -80 -11 0 -162 -144 -162 -154 0 -5 -6 -17 -14 -25 -8 -9 -34 -54 -59
-101 -50 -96 -83 -221 -73 -281 7 -44 -12 -101 -61 -181 l-23 -38 0 -920 0
-920 490 0 490 0 11 28 c6 15 15 55 19 90 5 35 11 66 14 69 3 3 13 -11 21 -31
12 -27 14 -53 9 -97 l-7 -59 972 0 c534 0 971 3 971 6 0 21 -234 280 -407 451
-40 39 -73 78 -73 86 0 8 -6 20 -14 26 -7 6 -28 57 -46 114 -45 141 -46 146
-76 292 -24 116 -27 149 -25 305 1 96 6 179 10 185 5 5 14 51 20 100 11 83 20
138 27 175 1 8 7 54 12 102 5 48 14 93 19 100 6 7 16 54 23 103 7 50 16 111
20 138 3 26 12 53 18 59 20 20 13 46 -18 69 -16 13 -41 39 -55 59 -14 20 -37
43 -50 50 -32 17 -75 104 -75 152 0 53 54 113 110 122 23 3 43 13 47 22 7 18
-29 127 -69 210 -17 34 -52 85 -79 113 -27 28 -55 64 -64 81 -9 16 -21 30 -28
30 -6 1 -22 9 -34 19 -20 17 -22 25 -16 68 3 26 12 52 20 56 7 4 13 14 13 21
0 14 64 76 79 76 4 0 15 17 24 38 8 20 25 53 36 72 34 59 61 127 62 157 1 33
18 80 39 109 14 19 50 44 64 44 12 0 6 -37 -9 -56 -8 -10 -15 -41 -15 -69 0
-50 1 -50 81 -127 45 -43 85 -78 90 -78 4 0 14 -6 21 -13 20 -19 142 -96 183
-116 11 -5 37 -21 58 -35 21 -14 41 -26 45 -26 4 0 20 -11 35 -25 33 -32 36
-74 6 -101 -33 -29 -64 -83 -83 -144 -30 -92 -36 -116 -36 -133 0 -9 -6 -17
-14 -17 -12 0 -46 -40 -46 -54 0 -3 11 0 25 6 14 6 25 14 25 18 0 4 12 20 26
36 14 16 31 41 39 55 24 45 59 45 115 3 69 -52 94 -107 85 -187 -10 -92 -34
-227 -42 -240 -5 -7 -13 -39 -20 -72 -6 -33 -15 -72 -18 -87 -6 -24 1 -35 51
-89 33 -34 75 -71 94 -84 40 -25 113 -45 165 -45 47 0 52 -17 27 -83 -12 -28
-24 -66 -27 -84 -3 -17 -12 -34 -20 -37 -11 -4 -12 -13 -3 -43 10 -38 40 -113
58 -145 15 -27 12 -35 -15 -42 -26 -7 -32 -20 -15 -31 16 -10 11 -41 -10 -60
-20 -18 -21 -18 -43 3 -27 26 -43 28 -51 7 -8 -23 -34 -18 -52 11 -12 18 -14
28 -6 36 6 6 9 23 6 37 -5 22 1 31 35 56 22 17 43 36 46 43 3 8 -17 37 -45 65
l-50 52 0 -40 c-1 -102 -23 -143 -60 -110 -9 8 -24 15 -33 15 -12 0 -17 9 -17
30 0 18 -6 33 -15 36 -8 3 -17 14 -20 25 -4 11 -20 26 -36 34 -33 18 -39 45
-9 45 11 0 20 5 20 10 0 6 -9 10 -19 10 -35 0 -52 27 -44 72 5 32 1 51 -18 87
-13 25 -28 49 -33 53 -12 8 -118 -2 -131 -13 -14 -14 -41 -11 -55 6 -7 9 -29
15 -55 15 -27 0 -51 7 -68 20 -14 11 -32 20 -41 20 -30 0 -16 -37 24 -65 22
-15 40 -31 40 -35 0 -14 167 -132 275 -194 67 -38 113 -83 120 -117 4 -16 11
-31 16 -34 5 -4 9 -43 9 -88 0 -45 5 -122 10 -172 6 -49 15 -187 20 -305 13
-286 32 -486 47 -501 9 -9 54 -12 162 -10 149 2 167 -1 155 -33 -9 -23 -35
-28 -165 -30 -69 -2 -123 -7 -131 -14 -11 -8 -14 -54 -16 -194 -1 -101 -6
-239 -10 -308 -5 -69 -8 -126 -7 -128 1 -1 415 -1 919 0 l918 3 -37 70 c-20
39 -45 97 -56 130 -11 33 -29 75 -40 93 -10 18 -18 43 -18 55 1 12 -11 51 -26
86 -15 34 -33 88 -41 120 -8 31 -23 74 -33 96 -50 111 -56 132 -56 195 0 57 2
65 20 68 14 2 39 -19 85 -74 36 -42 76 -88 89 -103 13 -14 30 -39 38 -56 19
-40 33 -64 62 -103 13 -18 20 -36 17 -39 -3 -4 -6 -1 -6 5 0 7 -9 12 -20 12
-11 0 -20 7 -20 15 0 8 -9 15 -20 15 -31 0 -24 -14 30 -61 27 -24 50 -49 50
-55 0 -22 34 -73 55 -83 39 -18 112 -30 290 -46 160 -14 187 -14 245 -1 74 17
131 37 205 72 29 13 68 24 87 24 23 0 42 8 56 22 23 25 26 64 38 436 l6 193
-29 36 c-15 19 -37 51 -48 71 -24 42 -45 53 -45 22 0 -23 -27 -70 -41 -70 -4
0 -9 15 -11 33 -3 31 -5 32 -53 35 -27 2 -54 7 -59 12 -5 5 -40 6 -78 3 -60
-5 -71 -3 -91 14 -29 28 -114 69 -157 78 -63 12 -69 16 -72 43 -2 19 -10 28
-25 30 -15 2 -24 13 -28 32 -10 44 -19 44 -59 0 -28 -31 -36 -49 -36 -78 0
-29 -5 -39 -22 -47 -15 -6 -25 -21 -28 -41 -3 -19 -18 -42 -37 -58 -18 -15
-33 -38 -35 -53 -2 -19 -14 -32 -41 -46 -21 -11 -42 -30 -47 -42 -5 -14 -20
-25 -40 -29 -17 -3 -44 -14 -58 -24 -43 -30 -96 -34 -127 -11 -14 11 -25 27
-25 34 0 18 31 35 63 35 17 0 35 13 56 37 25 32 32 35 41 23 7 -11 14 -12 26
-5 24 15 19 29 -11 33 -34 4 -32 18 6 31 28 9 32 8 36 -10 7 -26 43 -22 58 6
5 11 20 35 33 52 16 22 22 45 22 82 0 56 -13 67 -28 24 l-9 -28 -12 40 c-20
71 -13 118 20 136 16 8 22 4 39 -23 l20 -33 0 48 c0 40 -3 47 -20 47 -40 0
-66 21 -79 65 -11 38 -11 46 4 69 22 33 48 33 69 1 21 -33 31 -26 45 30 l11
45 -46 44 c-42 41 -45 47 -39 78 9 43 42 70 66 55 10 -6 21 -8 25 -4 10 9 0
18 -23 21 -27 4 -23 40 5 44 31 5 68 -21 88 -61 9 -17 32 -49 50 -70 28 -30
34 -45 34 -81 0 -25 5 -48 11 -52 6 -3 51 -8 99 -9 84 -3 90 -2 117 24 28 27
28 27 163 25 164 -2 150 0 150 -22 0 -19 50 -62 72 -62 22 -1 119 -37 131 -49
6 -6 19 -11 30 -11 10 0 45 -14 79 -30 33 -17 65 -30 71 -30 6 0 18 -6 26 -13
9 -8 52 -29 96 -48 44 -18 106 -51 138 -73 64 -42 82 -41 49 4 -12 16 -22 36
-22 45 0 8 -19 35 -43 59 -35 35 -41 46 -33 60 9 14 1 27 -51 76 -52 49 -63
65 -63 92 0 18 -7 42 -15 52 -8 11 -15 27 -15 35 -1 43 -97 184 -133 197 -18
6 -18 7 2 21 14 9 21 25 21 47 0 17 5 37 11 43 16 16 5 41 -57 135 -33 49 -70
92 -91 104 -32 20 -33 23 -14 29 12 3 21 10 21 15 0 10 -64 48 -95 56 -35 9
-31 27 4 19 66 -14 41 49 -33 85 -26 12 -46 25 -46 30 0 4 13 13 28 19 28 12
28 13 17 57 -6 25 -24 58 -41 74 -28 28 -31 29 -79 18 -27 -6 -55 -14 -61 -19
-11 -9 -44 -2 -44 9 0 3 7 13 16 23 15 16 14 21 -17 58 -18 23 -37 41 -44 41
-6 0 -37 25 -70 55 -32 31 -69 58 -81 61 -24 6 -71 -15 -124 -56 -41 -32 -94
-52 -116 -43 -8 3 -21 20 -29 39 -24 58 -102 65 -292 28 -15 -3 -23 0 -23 9 0
7 -24 23 -52 36 -29 12 -70 36 -90 52 -20 16 -41 29 -47 29 -5 0 -46 27 -91
61 -64 47 -85 58 -91 47 -7 -10 -13 -8 -27 9 -9 12 -28 27 -42 32 -14 6 -32
15 -40 19 -52 30 -62 33 -74 23 -23 -19 -27 2 -4 26 18 19 32 23 82 23 34 1
81 5 106 11 25 6 77 14 117 19 40 5 77 11 82 14 6 4 38 11 73 16 134 19 238
58 238 89 0 11 -26 42 -61 72 -34 30 -67 59 -73 64 -6 6 -45 39 -86 75 -41 36
-82 72 -91 80 -9 8 -36 33 -60 55 -49 45 -196 158 -219 168 -8 4 -28 16 -45
27 -16 11 -41 24 -54 30 -20 9 -22 15 -17 44 13 66 52 121 104 145 37 17 53
32 66 60 21 50 21 58 -10 78 -25 16 -26 20 -20 77 3 33 12 67 20 75 8 9 12 27
9 42 -6 31 11 46 33 28 21 -17 27 -6 13 24 -9 21 -8 34 5 67 17 42 14 80 -5
80 -6 0 -9 8 -7 18 2 9 10 17 18 17 16 0 20 40 7 87 -6 21 -2 33 14 49 18 18
22 35 23 80 1 56 -1 60 -44 104 -24 25 -52 45 -62 45 -22 0 -23 26 -3 47 17
16 16 34 -2 40 -6 2 -14 -5 -18 -15 -5 -18 -16 -20 -132 -21 -82 0 -136 4
-157 13 -17 7 -37 11 -43 9 -7 -3 -28 5 -46 16 l-34 21 -44 -51z m1 -197 c0
-13 -12 -22 -22 -16 -10 6 -1 24 13 24 5 0 9 -4 9 -8z m225 -2 c4 -6 -5 -10
-20 -10 -15 0 -24 4 -20 10 3 6 12 10 20 10 8 0 17 -4 20 -10z m-133 -58 c14
-52 112 -106 141 -77 9 8 20 15 26 15 16 0 13 -18 -4 -28 -14 -7 -12 -12 10
-36 14 -15 25 -29 25 -31 0 -2 -18 -9 -41 -15 -35 -10 -39 -13 -28 -26 17 -21
84 -54 108 -54 11 0 25 -9 31 -20 17 -31 40 -25 40 11 0 16 4 28 8 25 5 -3 7
-19 4 -36 -4 -29 -3 -30 32 -30 39 0 48 -18 21 -40 -8 -7 -15 -27 -15 -46 0
-32 -15 -53 -28 -40 -3 4 -6 22 -5 41 1 51 -14 52 -28 3 -7 -24 -16 -47 -19
-53 -4 -5 -10 -21 -13 -35 -3 -14 -25 -45 -47 -69 -23 -24 -49 -60 -60 -80
-29 -56 -75 -101 -97 -95 -11 3 -25 -2 -32 -10 -9 -10 -22 -14 -37 -10 -21 5
-24 3 -24 -23 0 -36 -9 -46 -27 -31 -10 8 -22 6 -49 -8 l-35 -19 -25 30 c-14
17 -34 40 -44 53 -32 39 -32 41 0 68 26 22 30 33 28 66 -2 33 3 43 27 62 l29
23 11 194 c6 107 8 202 3 211 -4 9 -8 32 -8 52 0 29 6 39 43 65 52 37 68 35
79 -7z m188 28 c0 -5 -7 -10 -15 -10 -8 0 -15 5 -15 10 0 6 7 10 15 10 8 0 15
-4 15 -10z m224 -239 c4 -5 2 -19 -2 -31 l-8 -22 -17 26 c-9 14 -17 28 -17 31
0 9 38 6 44 -4z m-634 -807 c0 -8 -9 -14 -20 -14 -22 0 -28 26 -7 33 16 6 27
-1 27 -19z m-317 -241 c38 -30 65 -69 54 -80 -4 -4 -13 -1 -19 5 -7 7 -22 12
-35 12 -16 0 -28 11 -43 40 -11 21 -20 42 -20 45 0 13 30 3 63 -22z m-683
-153 c12 -8 11 -10 -7 -10 -13 0 -23 5 -23 10 0 13 11 13 30 0z m1221 -52 c-3
-37 -41 -106 -63 -116 -3 -2 -19 -14 -34 -28 -17 -16 -34 -24 -46 -20 -13 3
-38 -9 -70 -32 -28 -19 -71 -41 -97 -47 -35 -9 -47 -17 -49 -34 -2 -12 -14
-26 -28 -31 -13 -5 -24 -15 -24 -22 0 -9 3 -9 12 0 17 17 45 15 52 -4 13 -35
4 -70 -29 -108 -28 -31 -37 -37 -49 -27 -8 6 -20 10 -27 9 -14 -3 -50 55 -69
112 -16 48 -3 70 40 70 15 0 33 7 40 15 7 8 18 15 24 15 6 1 29 9 51 20 22 11
46 19 54 20 7 0 39 17 70 38 31 21 61 41 66 43 32 13 85 58 115 97 33 42 59
72 63 72 2 0 1 -19 -2 -42z m-1211 -13 c0 -8 9 -15 20 -15 22 0 27 -15 8 -26
-6 -4 -16 0 -23 9 -7 10 -22 17 -34 17 -12 0 -21 6 -21 15 0 9 9 15 25 15 16
0 25 -6 25 -15z m-25 -55 c3 -5 -1 -10 -9 -10 -8 0 -18 5 -21 10 -3 6 1 10 9
10 8 0 18 -4 21 -10z m1995 -480 c11 -7 3 -10 -28 -10 -26 0 -41 4 -37 10 8
13 45 13 65 0z m-1290 -32 c5 -13 14 -41 20 -64 5 -22 19 -49 30 -59 11 -10
20 -29 20 -42 0 -25 -37 -89 -64 -112 -9 -7 -16 -19 -16 -27 0 -27 22 -24 63
9 51 42 112 62 161 53 39 -7 106 -59 106 -82 0 -7 8 -18 18 -24 14 -10 15 -12
2 -17 -8 -4 -27 -19 -42 -35 -30 -32 -66 -36 -161 -17 -70 14 -97 7 -122 -33
-33 -53 -40 -44 -42 49 -2 111 -21 256 -38 297 -15 35 -15 50 0 52 6 1 15 2
20 3 6 1 -1 10 -15 21 -24 20 -25 21 -6 35 28 22 55 18 66 -7z m623 -179 c53
-35 61 -55 54 -130 -6 -59 -15 -71 -54 -75 -75 -8 -120 -18 -135 -31 -9 -8
-29 -13 -45 -11 -24 3 -28 8 -31 41 -2 23 -8 37 -17 37 -22 0 -26 16 -16 62 8
33 21 53 63 90 67 60 110 64 181 17z m355 -93 c23 -26 32 -45 32 -69 0 -19 5
-48 11 -64 5 -17 9 -53 7 -79 l-4 -49 -13 33 c-13 33 -15 34 -60 28 -107 -14
-141 -5 -186 53 -49 61 -48 107 0 150 20 17 48 33 63 37 15 3 32 7 37 8 28 7
83 -16 113 -48z m465 -317 c51 -26 67 -51 67 -100 0 -26 -4 -50 -9 -54 -5 -3
-12 -19 -16 -35 -9 -41 -31 -60 -69 -60 -22 0 -39 -8 -54 -25 -28 -32 -59 -32
-94 2 l-27 26 -11 -27 c-5 -15 -10 -35 -10 -45 0 -25 -39 -58 -77 -66 -37 -7
-43 -24 -13 -32 24 -6 24 -3 4 -64 -12 -35 -21 -49 -32 -47 -26 5 -35 65 -21
148 6 41 14 94 17 118 l4 43 60 -3 59 -3 24 73 c29 91 46 117 93 141 43 23 74
26 105 10z m-1163 -414 c0 -7 -5 -15 -12 -17 -7 -3 -12 -18 -13 -34 0 -41 -37
-45 -76 -8 -36 35 -36 44 -1 44 15 0 35 9 44 19 18 21 58 18 58 -4z m367 -127
c17 -18 36 -43 42 -55 13 -25 15 -65 3 -46 -4 7 -22 15 -39 19 -39 8 -52 -18
-20 -41 25 -18 15 -32 -29 -41 -26 -5 -31 -2 -47 30 -17 36 -12 76 12 91 6 3
11 19 11 34 0 52 23 55 67 9z m388 -135 c16 -77 43 -138 77 -175 21 -23 42
-37 48 -33 6 4 22 -3 35 -15 14 -13 46 -28 72 -35 39 -10 48 -17 55 -41 9 -33
-10 -54 -49 -54 -16 0 -27 -8 -33 -25 -8 -21 -16 -25 -49 -25 -43 0 -65 22
-59 58 2 13 -6 18 -39 20 -23 2 -47 10 -53 18 -7 7 -19 14 -26 14 -8 0 -24 11
-36 25 -12 14 -26 25 -31 25 -25 0 -67 43 -67 68 0 15 -9 61 -20 102 -10 41
-17 76 -15 78 2 3 39 8 82 12 43 4 84 8 90 9 7 0 15 -11 18 -26z m1715 -63 c0
-13 -20 -13 -40 0 -12 8 -9 10 13 10 15 0 27 -4 27 -10z m-2574 -355 c6 -8 10
-61 10 -127 -1 -92 -4 -119 -19 -141 -14 -22 -16 -39 -11 -92 5 -46 3 -65 -5
-65 -6 0 -16 10 -21 23 -10 23 -30 406 -22 420 6 12 55 -1 68 -18z m1154 11
l33 -13 -38 -7 c-39 -8 -63 4 -51 23 9 14 17 14 56 -3z m427 -630 c-8 -17 -10
-17 -25 -2 -14 13 -14 20 -4 36 6 11 12 28 13 37 0 10 6 2 13 -17 8 -23 9 -42
3 -54z m-1567 -116 c0 -16 -4 -30 -10 -30 -5 0 -10 14 -10 30 0 17 5 30 10 30
6 0 10 -13 10 -30z"/>
<path d="M4550 1445 c0 -9 9 -15 24 -15 33 0 42 16 13 24 -33 9 -37 8 -37 -9z"/>
<path d="M2645 5090 c-4 -6 -9 -38 -12 -71 -3 -32 -12 -64 -19 -70 -18 -15
-18 -43 0 -58 22 -19 37 18 45 111 7 77 1 113 -14 88z"/>
<path d="M2587 4786 c-16 -12 -16 -14 -1 -20 29 -11 44 -6 44 14 0 23 -17 25
-43 6z"/>
<path d="M4460 4508 c-5 -13 -15 -30 -22 -39 -12 -17 -5 -49 11 -49 5 0 13 9
16 21 4 13 12 18 21 15 18 -7 67 39 61 57 -2 7 -20 13 -40 15 -31 3 -39 -1
-47 -20z"/>
<path d="M2430 3077 c0 -8 9 -22 20 -32 20 -18 20 -18 4 13 -17 34 -24 40 -24
19z"/>
<path d="M2480 3017 c0 -14 43 -87 51 -87 5 0 9 -7 9 -15 0 -8 7 -15 15 -15 8
0 15 5 15 10 0 6 -7 13 -15 16 -8 4 -15 12 -15 18 0 7 -13 28 -30 46 -16 18
-30 31 -30 27z"/>
<path d="M2747 2748 c-37 -39 -46 -53 -35 -59 21 -14 35 -10 41 10 2 11 15 21
28 23 20 2 25 10 27 41 2 20 0 37 -5 36 -4 -1 -30 -24 -56 -51z"/>
<path d="M6640 935 c-7 -8 -23 -15 -37 -15 -33 0 -99 -35 -106 -57 -7 -19 -37
-61 -158 -219 -42 -54 -84 -106 -93 -114 -10 -8 -38 -41 -64 -75 -25 -33 -50
-64 -56 -70 -7 -5 -34 -39 -61 -75 -58 -76 -67 -85 -120 -110 -72 -35 -92 -21
-59 41 8 17 13 38 9 47 -5 13 -10 11 -30 -13 -13 -17 -24 -40 -25 -53 0 -18
-12 -28 -57 -48 -32 -14 -77 -34 -100 -45 -62 -28 -141 -25 -275 9 -74 19
-171 -62 -105 -87 12 -5 31 -18 41 -30 19 -21 20 -21 666 -21 l647 0 25 53
c14 28 31 64 37 80 6 15 15 27 21 27 7 0 10 101 10 295 0 245 -2 295 -14 295
-18 0 -26 22 -26 70 0 41 -33 130 -48 130 -5 0 -15 -7 -22 -15z"/>
</g>
</svg>
